<svg xmlns="http://www.w3.org/2000/svg" width="49" height="49" fill="none"><path fill="url(#a)" d="M20.594 37.184c-.435.439-.664 1.062-.48 1.652a5.828 5.828 0 0 0 5.655 4.08v.001h12.42v-.007c4.931-.188 8.871-4.217 8.871-9.16 0-5.063-4.132-9.167-9.23-9.167-4.563 0-8.352 3.288-9.097 7.608a5.751 5.751 0 0 0-1.429-.627c-.588-.17-1.201.065-1.632.5l-5.078 5.12Z"/><path fill="url(#b)" d="M28.2 12.373a5.247 5.247 0 0 0-4.878-4.88 5.247 5.247 0 0 1-3.095-1.282 5.247 5.247 0 0 0-6.9 0 5.247 5.247 0 0 1-3.095 1.282 5.247 5.247 0 0 0-4.88 4.88 5.247 5.247 0 0 1-1.282 3.094 5.247 5.247 0 0 0 0 6.9 5.247 5.247 0 0 1 1.282 3.095 5.247 5.247 0 0 0 4.88 4.88c.6.04 1.216-.107 1.64-.531L27.67 14.014c.425-.425.572-1.042.53-1.641Z"/><path fill="#ABABAB" fill-rule="evenodd" d="m39.077 11.445-27.768 28-1.065-1.056 27.768-28 1.065 1.056Z" clip-rule="evenodd"/><defs><radialGradient id="b" cx="0" cy="0" r="1" gradientTransform="rotate(51.144 -12.092 21.542) scale(12.6111 13.4204)" gradientUnits="userSpaceOnUse"><stop offset=".156" stop-color="#FFD535"/><stop offset=".546" stop-color="#FFD323"/><stop offset=".974" stop-color="#E2A93A"/></radialGradient><linearGradient id="a" x1="42.407" x2="27.811" y1="47.857" y2="34.86" gradientUnits="userSpaceOnUse"><stop offset=".249" stop-color="#757575"/><stop offset="1" stop-color="#ABABAB"/></linearGradient></defs></svg>