<svg width="48.0dip" height="48.0dip" viewBox="0 0 48 48"><defs><linearGradient id="a"><stop offset=".268" style="stop-color:#f1c100;stop-opacity:1"/><stop offset="1" style="stop-color:#f39607;stop-opacity:.86274511"/></linearGradient></defs><path fill="url(#a)" d="M33.876 6.76a7.92 7.92 0 0 1 7.364 7.364 7.916 7.916 0 0 0 1.934 4.67 7.919 7.919 0 0 1 0 10.413 7.91 7.91 0 0 0-1.934 4.669 7.92 7.92 0 0 1-7.364 7.364 7.91 7.91 0 0 0-4.669 1.934 7.92 7.92 0 0 1-10.414 0 7.91 7.91 0 0 0-4.669-1.934 7.92 7.92 0 0 1-7.364-7.364 7.91 7.91 0 0 0-1.934-4.669 7.919 7.919 0 0 1 0-10.413 7.916 7.916 0 0 0 1.934-4.67 7.92 7.92 0 0 1 7.364-7.364 7.91 7.91 0 0 0 4.669-1.934 7.92 7.92 0 0 1 10.414 0 7.91 7.91 0 0 0 4.669 1.934Z"/></svg>