<svg width="48.0dip" height="48.0dip" viewBox="0 0 48 48"><defs><linearGradient id="a"><stop offset="0" style="stop-color:#b5b5b5;stop-opacity:.94901961"/><stop offset="1" style="stop-color:#e3e3e3;stop-opacity:.94999999"/></linearGradient></defs><path fill="url(#a)" fill-opacity=".92" fill-rule="evenOdd" d="M47 16.5c0 8.358-6.662 15.171-15 15.488V32H11v-.002l-.143.001C5.413 31.999 1 27.616 1 22.21c0-5.407 4.413-9.79 9.857-9.79 1.889 0 3.654.528 5.154 1.444C17.271 6.559 23.678 1 31.393 1 40.013 1 47 7.939 47 16.5Z"/><path fill="#757575" fill-rule="evenOdd" d="M34.379 39.993V44h1.242v-4.007l3.758 2.003.621-.993L36.243 39 40 36.996l-.621-.993-3.758 2.003V34h-1.242v4.006l-3.758-2.003-.621.993L33.757 39 30 41.003l.621.993 3.758-2.003Z"/><path fill="#757575" d="M34.379 39.993h.15v-.25l-.221.118.071.132Zm0 4.007h-.15v.15h.15V44Zm1.242 0v.15h.15V44h-.15Zm0-4.007.071-.132-.221-.118v.25h.15Zm3.758 2.003-.071.133.124.066.074-.119-.127-.08Zm.621-.993.127.079.085-.136-.141-.076-.071.133ZM36.243 39l-.071-.133-.248.133.248.132.071-.132ZM40 36.996l.071.133.141-.076-.085-.136-.127.079Zm-.621-.993.127-.08-.074-.119-.124.066.071.133Zm-3.758 2.003h-.15v.25l.221-.118-.071-.132Zm0-4.006h.15v-.15h-.15V34Zm-1.242 0v-.15h-.15V34h.15Zm0 4.006-.071.132.221.118v-.25h-.15Zm-3.758-2.003.071-.133-.124-.066-.074.119.127.08Zm-.621.993-.127-.079-.085.136.141.076.071-.133ZM33.757 39l.071.132.248-.132-.248-.133-.071.133ZM30 41.003l-.071-.133-.141.076.085.136.127-.079Zm.621.993-.127.08.074.119.124-.066-.071-.133Zm3.608-2.003V44h.3v-4.007h-.3Zm.15 4.157h1.242v-.3h-1.242v.3Zm1.392-.15v-4.007h-.3V44h.3Zm-.22-3.874 3.757 2.003.141-.265-3.757-2.003-.141.265Zm3.955 1.95.621-.994-.254-.159-.622.994.255.159Zm.565-1.206-3.758-2.003-.141.265 3.757 2.003.142-.265Zm-.142-4.006-3.757 2.003.141.265 3.758-2.003-.142-.265Zm-.678-.782.622.994.254-.159-.621-.994-.255.159Zm-3.559 2.056 3.757-2.003-.141-.265-3.757 2.003.141.265Zm.079-.132V34h-.3v4.006h.3Zm-.15-4.156h-1.242v.3h1.242v-.3Zm-1.392.15v4.006h.3V34h-.3Zm.22 3.873-3.757-2.003-.141.265 3.757 2.003.141-.265Zm-3.955-1.95-.621.994.254.159.622-.994-.255-.159Zm-.565 1.206 3.758 2.003.141-.265-3.757-2.003-.142.265Zm.142 4.006 3.757-2.003-.141-.265-3.758 2.003.142.265Zm.678.782-.622-.994-.254.159.621.994.255-.159Zm3.559-2.056-3.757 2.003.141.265 3.757-2.003-.141-.265Z"/></svg>