<svg xmlns="http://www.w3.org/2000/svg" xmlns:xlink="http://www.w3.org/1999/xlink" width="48.0dip" height="48.0dip" viewBox="0 0 48 48"><defs><linearGradient id="c"><stop offset=".194" style="stop-color:#f1c100;stop-opacity:1"/><stop offset=".708" style="stop-color:#f39607;stop-opacity:1"/></linearGradient><linearGradient id="b"><stop offset="0" style="stop-color:#b5b5b5;stop-opacity:1"/><stop offset="1" style="stop-color:#e3e3e3;stop-opacity:1"/></linearGradient><linearGradient id="a"><stop offset=".372" style="stop-color:#f1c100;stop-opacity:1"/><stop offset="1" style="stop-color:#f39607;stop-opacity:1"/></linearGradient><linearGradient xlink:href="#a" id="d" x1="6.284" x2="23.326" y1="-3.777" y2="34.403" gradientUnits="userSpaceOnUse"/><linearGradient xlink:href="#b" id="e" x1="34.26" x2="9.001" y1="8.71" y2="31.067" gradientUnits="userSpaceOnUse"/><linearGradient xlink:href="#c" id="f" x1="21.155" x2="54.142" y1="22.402" y2="48.411" gradientUnits="userSpaceOnUse"/></defs><path fill="url(#d)" d="M20.761 4.944a4.617 4.617 0 0 1 4.295 4.295 4.62 4.62 0 0 0 1.129 2.724 4.62 4.62 0 0 1 0 6.074 4.622 4.622 0 0 0-1.129 2.724 4.616 4.616 0 0 1-4.295 4.295 4.622 4.622 0 0 0-2.724 1.129 4.618 4.618 0 0 1-6.074 0 4.622 4.622 0 0 0-2.724-1.129 4.617 4.617 0 0 1-4.295-4.295 4.622 4.622 0 0 0-1.129-2.724 4.62 4.62 0 0 1 0-6.074 4.62 4.62 0 0 0 1.129-2.724 4.618 4.618 0 0 1 4.295-4.295 4.622 4.622 0 0 0 2.724-1.129 4.62 4.62 0 0 1 6.074 0 4.622 4.622 0 0 0 2.724 1.129Z" style="fill-opacity:1;fill:url(#d)"/><path fill="url(#e)" fill-opacity=".92" fill-rule="evenOdd" d="m21.131 31 5.751-11.4c.588-1.425 1.317-2.35 2.876-2.35h17.178c.038-.413.064-.825.064-1.25 0-8.287-6.991-15-15.606-15-7.72 0-14.123 5.375-15.389 12.45a10.068 10.068 0 0 0-5.151-1.4C5.41 12.05 1 16.288 1 21.525c0 5.025 4.064 9.125 9.203 9.45V31h10.928Z" style="fill-opacity:1;fill:url(#e)"/><path fill="#0b57d0" d="m17 33-4.24 4.107a5.655 5.655 0 0 0 0 8.2c2.347 2.266 6.147 2.266 8.48 0a5.655 5.655 0 0 0 0-8.2l-.04-.04L17 33ZM7 22l-4.24 4.107a5.655 5.655 0 0 0 0 8.2c2.347 2.266 6.147 2.266 8.48 0a5.655 5.655 0 0 0 0-8.2l-.04-.04L7 22Z"/><path fill="url(#f)" fill-rule="evenOdd" d="M30.667 21 24 34.754h6L29.253 47 44 30.958l-5.333-.026L44 21H30.667Z" style="fill-opacity:1;fill:url(#f)"/></svg>