<svg width="48.0dip" height="48.0dip" viewBox="0 0 48 48"><defs><linearGradient id="a"><stop offset="0" style="stop-color:#b5b5b5;stop-opacity:.94901961"/><stop offset="1" style="stop-color:#e3e3e3;stop-opacity:.94999999"/></linearGradient></defs><path fill="url(#a)" fill-opacity=".92" fill-rule="evenOdd" d="m21.131 31 5.751-11.78c.588-1.473 1.317-2.428 2.876-2.428h17.178c.038-.427.064-.853.064-1.292C47 6.936 40.009 0 31.394 0c-7.72 0-14.123 5.554-15.389 12.865a9.82 9.82 0 0 0-5.151-1.447C5.41 11.418 1 15.797 1 21.209c0 5.193 4.064 9.429 9.203 9.765V31h10.928Z"/><path fill="#0b57d0" d="m18 33-4.24 4.107a5.655 5.655 0 0 0 0 8.2c2.347 2.266 6.147 2.266 8.48 0a5.655 5.655 0 0 0 0-8.2l-.04-.04L18 33ZM7 22l-4.24 4.107a5.655 5.655 0 0 0 0 8.2c2.347 2.266 6.147 2.266 8.48 0a5.655 5.655 0 0 0 0-8.2l-.04-.04L7 22Z"/><defs><linearGradient id="b"><stop offset=".194" style="stop-color:#f1c100;stop-opacity:1"/><stop offset=".708" style="stop-color:#f39607;stop-opacity:1"/></linearGradient></defs><path fill="url(#b)" fill-rule="evenOdd" d="M30.667 21 24 34.754h6L29.253 47 44 30.958l-5.333-.026L44 21H30.667Z"/></svg>