<svg width="48.0dip" height="48.0dip" viewBox="0 0 48 48"><defs><linearGradient id="a"><stop offset="0" style="stop-color:#e0ecff;stop-opacity:1"/><stop offset=".771" style="stop-color:#4c8df6;stop-opacity:1"/></linearGradient></defs><path fill="url(#a)" fill-rule="evenOdd" d="M15.637 1c-1.688 2.053-2.711 4.653-2.711 7.493 0 6.627 5.527 12 12.355 12h.386C23.408 23.24 19.928 25 16.022 25 9.193 25 3.667 19.627 3.667 13c0-6.507 5.327-11.8 11.97-12Z"/><defs><linearGradient id="b"><stop offset="0" style="stop-color:#b5b5b5;stop-opacity:.94901961"/><stop offset="1" style="stop-color:#e3e3e3;stop-opacity:.94999999"/></linearGradient></defs><path fill="url(#b)" fill-opacity=".92" fill-rule="evenOdd" d="m21.131 31 5.751-11.4c.588-1.425 1.317-2.35 2.876-2.35h17.178c.038-.413.064-.825.064-1.25 0-8.287-6.991-15-15.606-15-7.72 0-14.123 5.375-15.389 12.45a10.068 10.068 0 0 0-5.151-1.4C5.41 12.05 1 16.288 1 21.525c0 5.025 4.064 9.125 9.203 9.45V31h10.928Z"/><path fill="#0b57d0" d="m17 33-4.24 4.105a5.65 5.65 0 0 0 0 8.196c2.347 2.265 6.147 2.265 8.48 0a5.65 5.65 0 0 0 0-8.196l-.04-.04L17 33ZM7 22l-4.24 4.105a5.65 5.65 0 0 0 0 8.196c2.347 2.265 6.147 2.265 8.48 0a5.65 5.65 0 0 0 0-8.196l-.04-.04L7 22Z"/><defs><linearGradient id="c"><stop offset=".194" style="stop-color:#f1c100;stop-opacity:1"/><stop offset=".708" style="stop-color:#f39607;stop-opacity:1"/></linearGradient></defs><path fill="url(#c)" fill-rule="evenOdd" d="M30.667 21 24 34.754h6L29.253 47 44 30.958l-5.333-.026L44 21H30.667Z"/></svg>