<svg width="48.0dip" height="48.0dip" viewBox="0 0 48 48"><defs><linearGradient id="a"><stop offset="0" style="stop-color:#b5b5b5;stop-opacity:.92"/><stop offset="1" style="stop-color:#e3e3e3;stop-opacity:.92"/></linearGradient><linearGradient id="b" x1="30.9" x2="8.558" y1="30.083" y2="11.527" gradientUnits="userSpaceOnUse"/></defs><path fill="url(#a)" fill-opacity=".92" fill-rule="evenOdd" d="M47 16.5c0 8.358-6.662 15.171-15 15.488V32H11v-.002l-.143.001C5.413 31.999 1 27.616 1 22.209c0-5.406 4.413-9.789 9.857-9.789 1.889 0 3.654.528 5.154 1.443C17.271 6.559 23.679 1 31.393 1 40.013 1 47 7.939 47 16.5Z"/><path fill="url(#b)" fill-rule="evenOdd" d="M47 16.5c0 8.358-6.662 15.171-15 15.488V32H11v-.002l-.143.001C5.413 31.999 1 27.616 1 22.209c0-5.406 4.413-9.789 9.857-9.789 1.889 0 3.654.528 5.154 1.443C17.271 6.559 23.679 1 31.393 1 40.013 1 47 7.939 47 16.5Z"/><path fill="url(#a)" fill-opacity=".92" fill-rule="evenOdd" d="M47 16.5c0 8.358-6.662 15.171-15 15.488V32H11v-.002l-.143.001C5.413 31.999 1 27.616 1 22.209c0-5.406 4.413-9.789 9.857-9.789 1.889 0 3.654.528 5.154 1.443C17.271 6.559 23.679 1 31.393 1 40.013 1 47 7.939 47 16.5Z"/><path fill="#5e5e5e" d="m9.44 23.735 5.44 5.439-5.44 5.439L4 29.174z"/><path fill="#0b57d0" d="m23.5 37-3.182 2.929c-1.757 1.618-1.757 4.24 0 5.858 1.758 1.617 4.607 1.617 6.364 0 1.757-1.618 1.757-4.24 0-5.858l-.028-.026L23.5 37Z"/><path fill="#757575" d="m28.48 21.015 2.72 2.72-16.32 16.318-2.72-2.72zM35.28 27.814l2.72 2.72-8.16 8.159-2.72-2.72z"/></svg>