<svg width="48.0dip" height="48.0dip" viewBox="0 0 48 48"><defs><linearGradient id="a"><stop offset="0" style="stop-color:#e0ecff;stop-opacity:1"/><stop offset=".771" style="stop-color:#4c8df6;stop-opacity:1"/></linearGradient></defs><path fill="url(#a)" fill-rule="evenOdd" d="M16.688 2c-2.077 2.51-3.319 5.696-3.319 9.162 0 8.102 6.787 14.67 15.159 14.67.158 0 .315-.002.471-.007-2.778 3.358-7.049 5.508-11.84 5.508C8.787 31.333 2 24.765 2 16.663 2 8.714 8.534 2.241 16.688 2Z"/><defs><linearGradient id="b"><stop offset="0" style="stop-color:#b5b5b5;stop-opacity:.94901961"/><stop offset="1" style="stop-color:#e3e3e3;stop-opacity:.94999999"/></linearGradient></defs><path fill="url(#b)" fill-opacity=".92" fill-rule="evenOdd" d="M47 30.999c0 7.983-6.489 14.51-14.674 14.973V46H10.196v-.021C5.061 45.653 1 41.545 1 36.527c0-5.232 4.413-9.473 9.857-9.473 1.889 0 3.654.511 5.154 1.396C17.27 21.381 23.678 16 31.393 16 40.013 16 47 22.715 47 30.999Z"/></svg>