<svg width="48.0dip" height="48.0dip" viewBox="0 0 48 48"><defs><linearGradient id="a"><stop offset=".268" style="stop-color:#f1c100;stop-opacity:1"/><stop offset="1" style="stop-color:#f39607;stop-opacity:.86274511"/></linearGradient></defs><path fill="url(#a)" d="M33.994 7.163a8.022 8.022 0 0 1 7.451 7.451 8.022 8.022 0 0 0 1.957 4.725 8.022 8.022 0 0 1 0 10.537 8.025 8.025 0 0 0-1.957 4.726 8.023 8.023 0 0 1-7.451 7.451 8.021 8.021 0 0 0-4.726 1.957 8.02 8.02 0 0 1-10.536 0 8.021 8.021 0 0 0-4.726-1.957 8.024 8.024 0 0 1-7.451-7.451 8.025 8.025 0 0 0-1.957-4.726 8.022 8.022 0 0 1 0-10.537 8.022 8.022 0 0 0 1.957-4.725 8.022 8.022 0 0 1 7.451-7.451 8.027 8.027 0 0 0 4.726-1.957 8.02 8.02 0 0 1 10.536 0 8.027 8.027 0 0 0 4.726 1.957Z"/><defs><linearGradient id="b"><stop offset="0" style="stop-color:#b5b5b5;stop-opacity:.92"/><stop offset="1" style="stop-color:#e3e3e3;stop-opacity:.92"/></linearGradient></defs><path fill="url(#b)" fill-opacity=".95" fill-rule="evenOdd" d="M46 36c0 5.322-4.232 9.673-9.57 9.982v.017h-.5l-.108.001-.109-.001h-13.21l-.075.001-.075-.001h-.355v-.013C18.648 45.768 16 43.03 16 39.684c0-3.488 2.878-6.316 6.428-6.316 1.232 0 2.384.341 3.362.931.821-4.712 5-8.299 10.032-8.299C41.443 26 46 30.477 46 36Z"/></svg>