<svg width="48.0dip" height="48.0dip" viewBox="0 0 48 48"><defs><linearGradient id="a"><stop offset="0" style="stop-color:#a8c7fa;stop-opacity:1"/><stop offset=".771" style="stop-color:#4c8df6;stop-opacity:.86274511"/></linearGradient></defs><path fill="url(#a)" fill-rule="evenOdd" d="M23.849 1c-3.231 3.937-5.163 8.932-5.163 14.368 0 12.705 10.558 23.005 23.582 23.005.245 0 .489-.004.732-.011C38.679 43.628 32.034 47 24.582 47 11.558 47 1 36.7 1 23.995 1 11.528 11.164 1.377 23.849 1Z"/><defs><linearGradient id="b"><stop offset="0" style="stop-color:#b5b5b5;stop-opacity:.92"/><stop offset="1" style="stop-color:#e3e3e3;stop-opacity:.92"/></linearGradient></defs><path fill="url(#b)" fill-opacity=".92" fill-rule="evenOdd" d="M47 35c0 6.225-4.824 11.343-11 11.942V47H19v-.006a9.04 9.04 0 0 1-.286.005c-4.26 0-7.714-3.393-7.714-7.579s3.454-7.579 7.714-7.579a7.78 7.78 0 0 1 4.034 1.118C23.734 27.304 28.749 23 34.786 23 41.532 23 47 28.373 47 35Z"/></svg>