<svg width="48.0dip" height="48.0dip" viewBox="0 0 48 48"><defs><linearGradient id="a"><stop offset="0" style="stop-color:#a8c7fa;stop-opacity:1"/><stop offset=".771" style="stop-color:#4c8df6;stop-opacity:.86274511"/></linearGradient></defs><path fill="url(#a)" fill-rule="evenOdd" d="M23.849 1c-3.231 3.937-5.163 8.932-5.163 14.368 0 12.705 10.558 23.005 23.582 23.005.245 0 .489-.004.732-.011C38.679 43.628 32.034 47 24.582 47 11.558 47 1 36.7 1 23.995 1 11.528 11.164 1.377 23.849 1Z"/><defs><linearGradient id="b"><stop offset="0" style="stop-color:#b5b5b5;stop-opacity:.92"/><stop offset="1" style="stop-color:#e3e3e3;stop-opacity:.92"/></linearGradient></defs><path fill="url(#b)" fill-opacity=".92" fill-rule="evenOdd" d="M47 31.5c0 8.358-6.662 15.172-15 15.488V47H11v-.001l-.143.001C5.413 47 1 42.617 1 37.211c0-5.407 4.413-9.79 9.857-9.79 1.889 0 3.654.528 5.154 1.443C17.271 21.559 23.678 16 31.393 16 40.012 16 47 22.94 47 31.5Z"/></svg>