<svg width="48.0dip" height="48.0dip" viewBox="0 0 48 48"><defs><linearGradient id="a"><stop offset=".268" style="stop-color:#f1c100;stop-opacity:1"/><stop offset="1" style="stop-color:#f39607;stop-opacity:.86274511"/></linearGradient></defs><path fill="url(#a)" d="M33.994 7.163a8.022 8.022 0 0 1 7.451 7.451 8.022 8.022 0 0 0 1.957 4.725 8.022 8.022 0 0 1 0 10.537 8.025 8.025 0 0 0-1.957 4.726 8.023 8.023 0 0 1-7.451 7.451 8.021 8.021 0 0 0-4.726 1.957 8.02 8.02 0 0 1-10.536 0 8.021 8.021 0 0 0-4.726-1.957 8.024 8.024 0 0 1-7.451-7.451 8.025 8.025 0 0 0-1.957-4.726 8.022 8.022 0 0 1 0-10.537 8.022 8.022 0 0 0 1.957-4.725 8.022 8.022 0 0 1 7.451-7.451 8.027 8.027 0 0 0 4.726-1.957 8.02 8.02 0 0 1 10.536 0 8.027 8.027 0 0 0 4.726 1.957Z"/><defs><linearGradient id="b"><stop offset="0" style="stop-color:#b5b5b5;stop-opacity:.92"/><stop offset="1" style="stop-color:#e3e3e3;stop-opacity:.92"/></linearGradient></defs><path fill="url(#b)" fill-opacity=".95" fill-rule="evenOdd" d="M47 31.999c0 7.318-5.715 13.325-13 13.947V46H14v-.002c-4.971 0-9-3.959-9-8.842 0-4.883 4.029-8.841 9-8.841 1.725 0 3.337.476 4.706 1.303C19.857 23.021 25.706 18 32.75 18 40.62 18 47 24.268 47 31.999Z"/></svg>