<svg width="48.0dip" height="48.0dip" viewBox="0 0 48 48"><defs><linearGradient id="a"><stop offset="0" style="stop-color:#e0ecff;stop-opacity:1"/><stop offset=".771" style="stop-color:#4c8df6;stop-opacity:1"/></linearGradient></defs><path fill="url(#a)" fill-rule="evenOdd" d="M13.969 1a11.74 11.74 0 0 0-2.705 7.496c0 6.629 5.531 12.003 12.353 12.003.128 0 .256-.002.383-.006C21.736 23.24 18.256 25 14.352 25 7.53 25 2 19.626 2 12.997 2 6.493 7.324 1.197 13.969 1Z"/><defs><linearGradient id="b"><stop offset="0" style="stop-color:#b5b5b5;stop-opacity:.92"/><stop offset="1" style="stop-color:#e3e3e3;stop-opacity:.92"/></linearGradient></defs><path fill="url(#b)" fill-opacity=".92" fill-rule="evenOdd" d="M47 16.499c0 8.358-6.662 15.171-15 15.487V32H11v-.003l-.143.001C5.413 31.998 1 27.615 1 22.209s4.413-9.789 9.857-9.789c1.889 0 3.655.528 5.154 1.444C17.271 6.559 23.678 1 31.393 1 40.013 1 47 7.939 47 16.499Z"/><path fill="#757575" fill-rule="evenOdd" d="M23.254 29.193V34h1.492v-4.807l4.508 2.403.746-1.192L25.491 28 30 25.596l-.746-1.192-4.508 2.404V22h-1.492v4.807l-4.508-2.403L18 25.596 22.509 28 18 30.404l.746 1.192 4.508-2.403Z"/><path fill="#757575" d="M23.254 29.193h.15v-.25l-.22.117.07.133Zm0 4.807h-.15v.15h.15V34Zm1.492 0v.15h.15V34h-.15Zm0-4.807.07-.133-.22-.117v.25h.15Zm4.508 2.403-.07.133.123.066.075-.119-.128-.08ZM30 30.404l.127.079.085-.136-.141-.076-.071.133ZM25.491 28l-.07-.132-.249.132.249.132.07-.132ZM30 25.596l.071.133.141-.076-.085-.136-.127.079Zm-.746-1.192.128-.08-.075-.118-.123.065.07.133Zm-4.508 2.404h-.15v.25l.22-.118-.07-.132Zm0-4.808h.15v-.15h-.15V22Zm-1.492 0v-.15h-.15V22h.15Zm0 4.807-.07.133.22.117v-.25h-.15Zm-4.508-2.403.07-.133-.123-.065-.075.118.128.08ZM18 25.596l-.127-.079-.085.136.141.076.071-.133ZM22.509 28l.07.132.249-.132-.249-.132-.07.132ZM18 30.404l-.071-.133-.141.076.085.136.127-.079Zm.746 1.192-.128.08.075.119.123-.066-.07-.133Zm4.358-2.403V34h.3v-4.807h-.3Zm.15 4.957h1.492v-.3h-1.492v.3Zm1.642-.15v-4.807h-.3V34h.3Zm-.221-4.675 4.509 2.404.141-.265-4.509-2.404-.141.265Zm4.707 2.351.745-1.193-.254-.159-.746 1.193.255.159Zm.689-1.405-4.509-2.403-.141.264 4.508 2.404.142-.265Zm-.142-4.807-4.508 2.404.141.264 4.509-2.403-.142-.265Zm-.802-.981.746 1.193.254-.159-.745-1.193-.255.159Zm-4.311 2.457 4.509-2.404-.141-.265-4.509 2.404.141.265Zm.08-.132V22h-.3v4.808h.3Zm-.15-4.958h-1.492v.3h1.492v-.3Zm-1.642.15v4.807h.3V22h-.3Zm.221 4.675-4.509-2.404-.141.265 4.509 2.404.141-.265Zm-4.707-2.351-.745 1.193.254.159.746-1.193-.255-.159Zm-.689 1.405 4.509 2.403.141-.264-4.508-2.404-.142.265Zm.142 4.807 4.508-2.404-.141-.264-4.509 2.403.142.265Zm.802.981-.746-1.193-.254.159.745 1.193.255-.159Zm4.311-2.457-4.509 2.404.141.265 4.509-2.404-.141-.265Z"/><path fill="#757575" fill-rule="evenOdd" d="M34.379 39.993V44h1.242v-4.007l3.758 2.003.621-.993L36.243 39 40 36.996l-.621-.993-3.758 2.003V34h-1.242v4.006l-3.758-2.003-.621.993L33.757 39 30 41.003l.621.993 3.758-2.003Z"/><path fill="#757575" d="M34.379 39.993h.15v-.25l-.221.118.071.132Zm0 4.007h-.15v.15h.15V44Zm1.242 0v.15h.15V44h-.15Zm0-4.007.071-.132-.221-.118v.25h.15Zm3.758 2.003-.071.133.124.066.074-.119-.127-.08Zm.621-.993.127.079.085-.136-.141-.076-.071.133ZM36.243 39l-.071-.133-.248.133.248.132.071-.132ZM40 36.996l.071.133.141-.076-.085-.136-.127.079Zm-.621-.993.127-.08-.074-.119-.124.066.071.133Zm-3.758 2.003h-.15v.25l.221-.118-.071-.132Zm0-4.006h.15v-.15h-.15V34Zm-1.242 0v-.15h-.15V34h.15Zm0 4.006-.071.132.221.118v-.25h-.15Zm-3.758-2.003.071-.133-.124-.066-.074.119.127.08Zm-.621.993-.127-.079-.085.136.141.076.071-.133ZM33.757 39l.071.132.248-.132-.248-.133-.071.133ZM30 41.003l-.071-.133-.141.076.085.136.127-.079Zm.621.993-.127.08.074.119.124-.066-.071-.133Zm3.608-2.003V44h.3v-4.007h-.3Zm.15 4.157h1.242v-.3h-1.242v.3Zm1.392-.15v-4.007h-.3V44h.3Zm-.22-3.874 3.757 2.003.141-.265-3.757-2.003-.141.265Zm3.955 1.95.621-.994-.254-.159-.622.994.255.159Zm.565-1.206-3.758-2.003-.141.265 3.757 2.003.142-.265Zm-.142-4.006-3.757 2.003.141.265 3.758-2.003-.142-.265Zm-.678-.782.622.994.254-.159-.621-.994-.255.159Zm-3.559 2.056 3.757-2.003-.141-.265-3.757 2.003.141.265Zm.079-.132V34h-.3v4.006h.3Zm-.15-4.156h-1.242v.3h1.242v-.3Zm-1.392.15v4.006h.3V34h-.3Zm.22 3.873-3.757-2.003-.141.265 3.757 2.003.141-.265Zm-3.955-1.95-.621.994.254.159.622-.994-.255-.159Zm-.565 1.206 3.758 2.003.141-.265-3.757-2.003-.142.265Zm.142 4.006 3.757-2.003-.141-.265-3.758 2.003.142.265Zm.678.782-.622-.994-.254.159.621.994.255-.159Zm3.559-2.056-3.757 2.003.141.265 3.757-2.003-.141-.265Z"/><path fill="#757575" fill-rule="evenOdd" d="M39.254 25.193V30h1.491v-4.807l4.509 2.403.746-1.192L41.491 24 46 21.596l-.746-1.192-4.509 2.404V18h-1.491v4.807l-4.508-2.403L34 21.596 38.509 24 34 26.404l.746 1.192 4.508-2.403Z"/><path fill="#757575" d="M39.254 25.193h.15v-.25l-.22.117.07.133Zm0 4.807h-.15v.15h.15V30Zm1.491 0v.15h.151V30h-.151Zm0-4.807.071-.133-.22-.117v.25h.149Zm4.509 2.403-.07.133.123.066.075-.119-.128-.08ZM46 26.404l.127.079.085-.136-.141-.076-.071.133ZM41.491 24l-.07-.132-.249.132.249.132.07-.132ZM46 21.596l.071.133.141-.076-.085-.136-.127.079Zm-.746-1.192.128-.08-.075-.118-.123.065.07.133Zm-4.509 2.404h-.149v.25l.22-.118-.071-.132Zm0-4.808h.151v-.15h-.151V18Zm-1.491 0v-.15h-.15V18h.15Zm0 4.807-.07.133.22.117v-.25h-.15Zm-4.508-2.403.07-.133-.123-.065-.075.118.128.08ZM34 21.596l-.127-.079-.085.136.141.076.071-.133ZM38.509 24l.07.132.249-.132-.249-.132-.07.132ZM34 26.404l-.071-.133-.141.076.085.136.127-.079Zm.746 1.192-.128.08.075.119.123-.066-.07-.133Zm4.358-2.403V30h.3v-4.807h-.3Zm.15 4.957h1.491v-.3h-1.491v.3Zm1.642-.15v-4.807h-.3V30h.3Zm-.221-4.675 4.509 2.404.141-.265-4.509-2.404-.141.265Zm4.707 2.351.745-1.193-.254-.159-.746 1.193.255.159Zm.689-1.405-4.509-2.403-.141.264 4.508 2.404.142-.265Zm-.142-4.807-4.508 2.404.141.264 4.509-2.403-.142-.265Zm-.802-.981.746 1.193.254-.159-.745-1.193-.255.159Zm-4.311 2.457 4.509-2.404-.141-.265-4.509 2.404.141.265Zm.08-.132V18h-.3v4.808h.3Zm-.151-4.958h-1.491v.3h1.491v-.3Zm-1.641.15v4.807h.3V18h-.3Zm.221 4.675-4.509-2.404-.141.265 4.509 2.404.141-.265Zm-4.707-2.351-.745 1.193.254.159.746-1.193-.255-.159Zm-.689 1.405 4.509 2.403.141-.264-4.508-2.404-.142.265Zm.142 4.807 4.508-2.404-.141-.264-4.509 2.403.142.265Zm.802.981-.746-1.193-.254.159.745 1.193.255-.159Zm4.311-2.457-4.509 2.404.141.265 4.509-2.404-.141-.265Z"/></svg>