<svg width="48.0dip" height="48.0dip" viewBox="0 0 48 48"><defs><linearGradient id="a"><stop offset="0" style="stop-color:#b5b5b5;stop-opacity:.92"/><stop offset="1" style="stop-color:#e3e3e3;stop-opacity:.92"/></linearGradient></defs><path fill="url(#a)" fill-opacity=".92" fill-rule="evenOdd" d="M47 16.5c0 8.358-6.662 15.171-15 15.488V32H11v-.002l-.143.001C5.413 31.999 1 27.616 1 22.21c0-5.407 4.413-9.79 9.857-9.79 1.889 0 3.654.528 5.154 1.444C17.271 6.559 23.678 1 31.393 1 40.013 1 47 7.939 47 16.5Z"/><path fill="#0b57d0" d="m23 20-4.243 4.101a5.663 5.663 0 0 0 0 8.201c2.343 2.264 6.142 2.264 8.486 0a5.663 5.663 0 0 0 0-8.201l-.038-.036L23 20ZM31 33l-4.243 4.101a5.663 5.663 0 0 0 0 8.201c2.343 2.264 6.142 2.264 8.486 0a5.663 5.663 0 0 0 0-8.201l-.038-.036L31 33ZM41 20l-4.243 4.101a5.662 5.662 0 0 0 0 8.2c2.344 2.265 6.143 2.265 8.486 0a5.662 5.662 0 0 0 0-8.2l-.038-.036L41 20Z"/></svg>