<svg width="48.0dip" height="48.0dip" viewBox="0 0 48 48"><defs><linearGradient id="a"><stop offset="0" style="stop-color:#b5b5b5;stop-opacity:.92"/><stop offset="1" style="stop-color:#e3e3e3;stop-opacity:.92"/></linearGradient></defs><path fill="url(#a)" fill-opacity=".92" fill-rule="evenOdd" d="M47 16.5c0 8.358-6.662 15.171-15 15.488V32H11v-.002l-.143.001C5.413 31.999 1 27.616 1 22.21c0-5.407 4.413-9.79 9.857-9.79 1.889 0 3.654.528 5.154 1.444C17.271 6.559 23.678 1 31.393 1 40.013 1 47 7.939 47 16.5Z"/><path fill="#757575" fill-rule="evenOdd" d="M23.254 37.193V42h1.492v-4.807l4.508 2.403.746-1.192L25.491 36 30 33.596l-.746-1.192-4.508 2.404V30h-1.492v4.807l-4.508-2.403L18 33.596 22.509 36 18 38.404l.746 1.192 4.508-2.403Z"/><path fill="#757575" d="M23.254 37.193h.15v-.25l-.22.117.07.133Zm0 4.807h-.15v.15h.15V42Zm1.492 0v.15h.15V42h-.15Zm0-4.807.07-.133-.22-.117v.25h.15Zm4.508 2.403-.07.133.123.066.075-.119-.128-.08ZM30 38.404l.127.079.085-.136-.141-.076-.071.133ZM25.491 36l-.07-.132-.249.132.249.132.07-.132ZM30 33.596l.071.133.141-.076-.085-.136-.127.079Zm-.746-1.192.128-.08-.075-.118-.123.065.07.133Zm-4.508 2.404h-.15v.25l.22-.118-.07-.132Zm0-4.808h.15v-.15h-.15V30Zm-1.492 0v-.15h-.15V30h.15Zm0 4.807-.07.133.22.117v-.25h-.15Zm-4.508-2.403.07-.133-.123-.065-.075.118.128.08ZM18 33.596l-.127-.079-.085.136.141.076.071-.133ZM22.509 36l.07.132.249-.132-.249-.132-.07.132ZM18 38.404l-.071-.133-.141.076.085.136.127-.079Zm.746 1.192-.128.08.075.119.123-.066-.07-.133Zm4.358-2.403V42h.3v-4.807h-.3Zm.15 4.957h1.492v-.3h-1.492v.3Zm1.642-.15v-4.807h-.3V42h.3Zm-.221-4.675 4.509 2.404.141-.265-4.509-2.404-.141.265Zm4.707 2.351.745-1.193-.254-.159-.746 1.193.255.159Zm.689-1.405-4.509-2.403-.141.264 4.508 2.404.142-.265Zm-.142-4.807-4.508 2.404.141.264 4.509-2.403-.142-.265Zm-.802-.981.746 1.193.254-.159-.745-1.193-.255.159Zm-4.311 2.457 4.509-2.404-.141-.265-4.509 2.404.141.265Zm.08-.132V30h-.3v4.808h.3Zm-.15-4.958h-1.492v.3h1.492v-.3Zm-1.642.15v4.807h.3V30h-.3Zm.221 4.675-4.509-2.404-.141.265 4.509 2.404.141-.265Zm-4.707-2.351-.745 1.193.254.159.746-1.193-.255-.159Zm-.689 1.405 4.509 2.403.141-.264-4.508-2.404-.142.265Zm.142 4.807 4.508-2.404-.141-.264-4.509 2.403.142.265Zm.802.981-.746-1.193-.254.159.745 1.193.255-.159Zm4.311-2.457-4.509 2.404.141.265 4.509-2.404-.141-.265Z"/><path fill="#757575" fill-rule="evenOdd" d="M36.379 42.993V47h1.242v-4.007l3.758 2.003.621-.993L38.243 42 42 39.996l-.621-.993-3.758 2.003V37h-1.242v4.006l-3.758-2.003-.621.993L35.757 42 32 44.003l.621.993 3.758-2.003Z"/><path fill="#757575" d="M36.379 42.993h.15v-.25l-.221.118.071.132Zm0 4.007h-.15v.15h.15V47Zm1.242 0v.15h.15V47h-.15Zm0-4.007.071-.132-.221-.118v.25h.15Zm3.758 2.003-.071.133.124.066.074-.119-.127-.08Zm.621-.993.127.079.085-.136-.141-.076-.071.133ZM38.243 42l-.071-.133-.248.133.248.132.071-.132ZM42 39.996l.071.133.141-.076-.085-.136-.127.079Zm-.621-.993.127-.08-.074-.119-.124.066.071.133Zm-3.758 2.003h-.15v.25l.221-.118-.071-.132Zm0-4.006h.15v-.15h-.15V37Zm-1.242 0v-.15h-.15V37h.15Zm0 4.006-.071.132.221.118v-.25h-.15Zm-3.758-2.003.071-.133-.124-.066-.074.119.127.08Zm-.621.993-.127-.079-.085.136.141.076.071-.133ZM35.757 42l.071.132.248-.132-.248-.133-.071.133ZM32 44.003l-.071-.133-.141.076.085.136.127-.079Zm.621.993-.127.08.074.119.124-.066-.071-.133Zm3.608-2.003V47h.3v-4.007h-.3Zm.15 4.157h1.242v-.3h-1.242v.3Zm1.392-.15v-4.007h-.3V47h.3Zm-.22-3.874 3.757 2.003.141-.265-3.757-2.003-.141.265Zm3.955 1.95.621-.994-.254-.159-.622.994.255.159Zm.565-1.206-3.758-2.003-.141.265 3.757 2.003.142-.265Zm-.142-4.006-3.757 2.003.141.265 3.758-2.003-.142-.265Zm-.678-.782.622.994.254-.159-.621-.994-.255.159Zm-3.559 2.056 3.757-2.003-.141-.265-3.757 2.003.141.265Zm.079-.132V37h-.3v4.006h.3Zm-.15-4.156h-1.242v.3h1.242v-.3Zm-1.392.15v4.006h.3V37h-.3Zm.22 3.873-3.757-2.003-.141.265 3.757 2.003.141-.265Zm-3.955-1.95-.621.994.254.159.622-.994-.255-.159Zm-.565 1.206 3.758 2.003.141-.265-3.757-2.003-.142.265Zm.142 4.006 3.757-2.003-.141-.265-3.758 2.003.142.265Zm.678.782-.622-.994-.254.159.621.994.255-.159Zm3.559-2.056-3.757 2.003.141.265 3.757-2.003-.141-.265Z"/><path fill="#757575" fill-rule="evenOdd" d="M39.254 29.193V34h1.491v-4.807l4.509 2.403.746-1.192L41.491 28 46 25.596l-.746-1.192-4.509 2.404V22h-1.491v4.807l-4.508-2.403L34 25.596 38.509 28 34 30.404l.746 1.192 4.508-2.403Z"/><path fill="#757575" d="M39.254 29.193h.15v-.25l-.22.117.07.133Zm0 4.807h-.15v.15h.15V34Zm1.491 0v.15h.151V34h-.151Zm0-4.807.071-.133-.22-.117v.25h.149Zm4.509 2.403-.07.133.123.066.075-.119-.128-.08ZM46 30.404l.127.079.085-.136-.141-.076-.071.133ZM41.491 28l-.07-.132-.249.132.249.132.07-.132ZM46 25.596l.071.133.141-.076-.085-.136-.127.079Zm-.746-1.192.128-.08-.075-.118-.123.065.07.133Zm-4.509 2.404h-.149v.25l.22-.118-.071-.132Zm0-4.808h.151v-.15h-.151V22Zm-1.491 0v-.15h-.15V22h.15Zm0 4.807-.07.133.22.117v-.25h-.15Zm-4.508-2.403.07-.133-.123-.065-.075.118.128.08ZM34 25.596l-.127-.079-.085.136.141.076.071-.133ZM38.509 28l.07.132.249-.132-.249-.132-.07.132ZM34 30.404l-.071-.133-.141.076.085.136.127-.079Zm.746 1.192-.128.08.075.119.123-.066-.07-.133Zm4.358-2.403V34h.3v-4.807h-.3Zm.15 4.957h1.491v-.3h-1.491v.3Zm1.642-.15v-4.807h-.3V34h.3Zm-.221-4.675 4.509 2.404.141-.265-4.509-2.404-.141.265Zm4.707 2.351.745-1.193-.254-.159-.746 1.193.255.159Zm.689-1.405-4.509-2.403-.141.264 4.508 2.404.142-.265Zm-.142-4.807-4.508 2.404.141.264 4.509-2.403-.142-.265Zm-.802-.981.746 1.193.254-.159-.745-1.193-.255.159Zm-4.311 2.457 4.509-2.404-.141-.265-4.509 2.404.141.265Zm.08-.132V22h-.3v4.808h.3Zm-.151-4.958h-1.491v.3h1.491v-.3Zm-1.641.15v4.807h.3V22h-.3Zm.221 4.675-4.509-2.404-.141.265 4.509 2.404.141-.265Zm-4.707-2.351-.745 1.193.254.159.746-1.193-.255-.159Zm-.689 1.405 4.509 2.403.141-.264-4.508-2.404-.142.265Zm.142 4.807 4.508-2.404-.141-.264-4.509 2.403.142.265Zm.802.981-.746-1.193-.254.159.745 1.193.255-.159Zm4.311-2.457-4.509 2.404.141.265 4.509-2.404-.141-.265Z"/></svg>