<svg width="48.0dip" height="48.0dip" viewBox="0 0 48 48"><defs><linearGradient id="a"><stop offset="0" style="stop-color:#474747;stop-opacity:.92"/><stop offset="1" style="stop-color:#757575;stop-opacity:.92"/></linearGradient></defs><path fill="url(#a)" fill-opacity=".92" fill-rule="evenOdd" d="M47 16.5c0 8.358-6.662 15.171-15 15.488V32H11v-.002l-.143.001C5.413 31.999 1 27.616 1 22.21c0-5.407 4.413-9.79 9.857-9.79 1.889 0 3.654.528 5.154 1.444C17.271 6.559 23.679 1 31.393 1 40.013 1 47 7.939 47 16.5Z"/><defs><linearGradient id="b"><stop offset="0" style="stop-color:#b5b5b5;stop-opacity:.92"/><stop offset="1" style="stop-color:#e3e3e3;stop-opacity:.92"/></linearGradient></defs><path fill="url(#b)" fill-opacity=".92" fill-rule="evenOdd" d="M47 16.5c0 8.358-6.662 15.171-15 15.488V32H11v-.002l-.143.001C5.413 31.999 1 27.616 1 22.21c0-5.407 4.413-9.79 9.857-9.79 1.889 0 3.654.528 5.154 1.444C17.271 6.559 23.679 1 31.393 1 40.013 1 47 7.939 47 16.5Z"/><path fill="#5e5e5e" d="m9.44 21.719 5.44 5.439-5.44 5.439L4 27.158zM23.04 35.316l5.44 5.439-5.44 5.439-5.44-5.439z"/><path fill="#757575" d="m28.48 19 2.72 2.72-16.32 16.318-2.72-2.72zM35.28 25.799l2.72 2.72-8.16 8.159-2.72-2.72z"/></svg>