<svg width="48.0dip" height="48.0dip" viewBox="0 0 48 48"><defs><linearGradient id="a"><stop offset=".194" style="stop-color:#f1c100;stop-opacity:1"/><stop offset=".708" style="stop-color:#f39607;stop-opacity:1"/></linearGradient></defs><path fill="url(#a)" fill-rule="evenOdd" d="M30.667 21 24 34.757h6L29.257 47 44 30.962l-5.335-.021L44 21H30.667ZM18.667 37 16 42.291h2.4L18.103 47 24 40.832l-2.134-.008L24 37h-5.333Z"/><defs><linearGradient id="b"><stop offset="0" style="stop-color:#b5b5b5;stop-opacity:.92"/><stop offset="1" style="stop-color:#e3e3e3;stop-opacity:.92"/></linearGradient></defs><path fill="url(#b)" fill-opacity=".92" fill-rule="evenOdd" d="M27.304 20.22 21.604 32H18.77a.836.836 0 0 1-.298-1.105l1.045-1.952c.712-1.332-.253-2.943-1.764-2.943h-3.586c-.179 0-.353.024-.521.069a1.976 1.976 0 0 0-.522-.069h-3.039c-.771 0-1.474.444-1.806 1.141l-1.821 3.828C3.223 29.366 1 26.049 1 22.209c0-5.412 4.41-9.791 9.854-9.791a9.82 9.82 0 0 1 5.151 1.447C17.271 6.554 23.674 1 31.394 1 40.009 1 47 7.936 47 16.5c0 .439-.026.865-.064 1.292H30.857a3.83 3.83 0 0 0-3.553 2.428Z"/><path fill="url(#a)" fill-rule="evenOdd" d="m10 28-4 7.937h3.6L9.154 43 18 33.748l-3.201-.013L18 28h-8Z"/></svg>