<svg width="48.0dip" height="48.0dip" viewBox="0 0 48 48"><path fill="#ababab" fill-rule="evenOdd" d="M35.577 4a6.5 6.5 0 0 0-6.5 6.5V29.859A9.973 9.973 0 0 0 26 37.076c0 5.522 4.477 10 10 10s10-4.478 10-10a9.969 9.969 0 0 0-3.077-7.216l.001-.052V10.5a6.5 6.5 0 0 0-6.5-6.5h-.847Z"/><path fill="#fff" fill-rule="evenOdd" d="M36.001 6.513a3.75 3.75 0 0 0-3.75 3.75V31.27a6.923 6.923 0 1 0 7.5-.001V10.263a3.75 3.75 0 0 0-3.75-3.75Z"/><path fill="#ea4335" d="M36.001 34.003a3.75 3.75 0 0 1 3.75 3.75 3.75 3.75 0 0 1-3.75 3.75 3.75 3.75 0 0 1-3.75-3.75 3.75 3.75 0 0 1 3.75-3.75z"/><path fill="#ea4335" d="M36 12a1.333 1.333 0 0 1 1.333 1.333v21.334A1.333 1.333 0 0 1 36 36a1.333 1.333 0 0 1-1.333-1.333V13.333A1.333 1.333 0 0 1 36 12z"/><defs><linearGradient id="a"><stop offset=".268" style="stop-color:#f1c100;stop-opacity:1"/><stop offset="1" style="stop-color:#f39607;stop-opacity:.86274511"/></linearGradient></defs><path fill="url(#a)" fill-rule="evenOdd" d="M24.903 44.17a7.922 7.922 0 0 1-8.983-.995 7.923 7.923 0 0 0-4.67-1.935 7.917 7.917 0 0 1-7.363-7.363 7.923 7.923 0 0 0-1.935-4.67 7.919 7.919 0 0 1 0-10.413 7.923 7.923 0 0 0 1.935-4.67 7.917 7.917 0 0 1 7.363-7.363 7.922 7.922 0 0 0 4.67-1.934 7.917 7.917 0 0 1 10.413 0c.212.184.432.357.66.517a9.19 9.19 0 0 0-.779 3.718V27.62c-2.214 3.414-3.088 5.894-3.088 10.032 0 2.394.599 4.627 1.777 6.518Z"/></svg>