<svg xmlns="http://www.w3.org/2000/svg" width="48" height="48" fill="none"><mask id="a" width="37" height="30" x="6" y="9" maskUnits="userSpaceOnUse" style="mask-type:luminance"><path fill="#fff" fill-rule="evenodd" d="M33.01 33c-2.45 0-3.96.76-5.29 1.44-1.17.59-2.1 1.06-3.71 1.06-1.61 0-2.54-.47-3.71-1.06-1.33-.68-2.84-1.44-5.29-1.44s-3.96.76-5.29 1.44c-1.17.59-2.1 1.06-3.71 1.06V39c2.45 0 3.96-.76 5.29-1.44 1.17-.59 2.1-1.06 3.71-1.06 1.61 0 2.54.47 3.71 1.06 1.33.67 2.84 1.44 5.29 1.44s3.96-.76 5.29-1.44c1.17-.59 2.1-1.06 3.71-1.06 1.61 0 2.54.47 3.71 1.06 1.33.67 2.84 1.44 5.29 1.44v-3.5c-1.61 0-2.54-.47-3.71-1.06-1.33-.68-2.84-1.44-5.29-1.44Zm0-8c-2.45 0-3.96.76-5.29 1.44-1.17.59-2.1 1.06-3.71 1.06-1.61 0-2.54-.47-3.71-1.06-1.33-.68-2.84-1.44-5.29-1.44s-3.96.76-5.29 1.44c-1.17.59-2.1 1.06-3.71 1.06V31c2.45 0 3.96-.76 5.29-1.44 1.17-.59 2.1-1.06 3.71-1.06 1.61 0 2.54.47 3.71 1.06 1.33.67 2.84 1.44 5.29 1.44s3.96-.76 5.29-1.44c1.17-.59 2.1-1.06 3.71-1.06 1.61 0 2.54.47 3.71 1.06 1.33.67 2.84 1.44 5.29 1.44v-3.5c-1.61 0-2.54-.47-3.71-1.06-1.33-.68-2.84-1.44-5.29-1.44Zm5.29-14.56C36.97 9.76 35.46 9 33.01 9s-3.96.76-5.29 1.44c-1.17.59-2.1 1.06-3.71 1.06-1.61 0-2.54-.47-3.71-1.06C18.97 9.76 17.46 9 15.01 9s-3.96.76-5.29 1.44c-1.17.59-2.1 1.06-3.71 1.06V15c2.45 0 3.96-.76 5.29-1.44 1.17-.59 2.1-1.06 3.71-1.06 1.61 0 2.54.47 3.71 1.06 1.33.67 2.84 1.44 5.29 1.44s3.96-.76 5.29-1.44c1.17-.59 2.1-1.06 3.71-1.06 1.61 0 2.54.47 3.71 1.06 1.33.67 2.84 1.44 5.29 1.44v-3.5c-1.61 0-2.54-.47-3.71-1.06ZM33.01 17c-2.45 0-3.96.76-5.29 1.44-1.17.59-2.1 1.06-3.71 1.06-1.61 0-2.54-.47-3.71-1.06-1.33-.68-2.84-1.44-5.29-1.44s-3.96.76-5.29 1.44c-1.17.59-2.1 1.06-3.71 1.06V23c2.45 0 3.96-.76 5.29-1.44 1.17-.59 2.1-1.06 3.71-1.06 1.61 0 2.54.47 3.71 1.06 1.33.67 2.84 1.44 5.29 1.44s3.96-.76 5.29-1.44c1.17-.59 2.1-1.06 3.71-1.06 1.61 0 2.54.47 3.71 1.06 1.33.67 2.84 1.44 5.29 1.44v-3.5c-1.61 0-2.54-.47-3.71-1.06-1.33-.68-2.84-1.44-5.29-1.44Z" clip-rule="evenodd"/></mask><g mask="url(#a)"><path fill="#ABABAB" fill-rule="evenodd" d="M33.01 9c2.45 0 3.96.76 5.29 1.44l.004.002c1.168.59 2.098 1.058 3.706 1.058V15c-2.432 0-3.938-.759-5.26-1.425l-.03-.015-.004-.002c-1.168-.59-2.098-1.058-3.706-1.058s-2.538.469-3.706 1.058l-.004.002c-1.33.68-2.84 1.44-5.29 1.44-2.432 0-3.938-.759-5.26-1.425l-.03-.015-.004-.002c-1.168-.59-2.098-1.058-3.706-1.058s-2.538.469-3.706 1.058l-.004.002C9.97 14.24 8.46 15 6.01 15v-3.5c1.608 0 2.538-.469 3.706-1.058l.004-.002C11.05 9.76 12.56 9 15.01 9s3.96.76 5.29 1.44l.004.002c1.168.59 2.098 1.058 3.706 1.058s2.538-.469 3.706-1.058l.004-.002C29.05 9.76 30.56 9 33.01 9Zm-5.29 25.44c1.33-.68 2.84-1.44 5.29-1.44s3.96.76 5.29 1.44l.004.002c1.168.59 2.098 1.058 3.706 1.058V39c-2.432 0-3.938-.759-5.26-1.425l-.03-.015-.004-.002c-1.168-.59-2.098-1.058-3.706-1.058s-2.538.469-3.706 1.058l-.004.002c-1.33.68-2.84 1.44-5.29 1.44-2.432 0-3.938-.759-5.26-1.425l-.03-.015-.004-.002c-1.168-.59-2.098-1.058-3.706-1.058s-2.538.469-3.706 1.058l-.004.002C9.97 38.24 8.46 39 6.01 39v-3.5c1.608 0 2.538-.469 3.706-1.058l.004-.002c1.33-.68 2.84-1.44 5.29-1.44s3.96.76 5.29 1.44l.004.002c1.168.59 2.098 1.058 3.706 1.058s2.538-.469 3.706-1.058l.004-.002ZM33.01 25c-2.45 0-3.96.76-5.29 1.44l-.004.002c-1.168.59-2.098 1.058-3.706 1.058s-2.538-.469-3.706-1.058l-.004-.002c-1.33-.68-2.84-1.44-5.29-1.44s-3.96.76-5.29 1.44l-.004.002c-1.168.59-2.098 1.058-3.706 1.058V31c2.45 0 3.96-.76 5.29-1.44l.004-.002c1.168-.59 2.098-1.058 3.706-1.058s2.538.469 3.706 1.058l.004.002.03.015c1.323.666 2.828 1.425 5.26 1.425 2.45 0 3.96-.76 5.29-1.44l.004-.002c1.168-.59 2.098-1.058 3.706-1.058s2.538.469 3.706 1.058l.004.002.03.015c1.322.666 2.828 1.425 5.26 1.425v-3.5c-1.608 0-2.538-.469-3.706-1.058l-.004-.002c-1.33-.68-2.84-1.44-5.29-1.44Zm-5.29-6.56c1.33-.68 2.84-1.44 5.29-1.44s3.96.76 5.29 1.44l.004.002c1.168.59 2.098 1.058 3.706 1.058V23c-2.432 0-3.938-.759-5.26-1.425l-.03-.015-.004-.002c-1.168-.59-2.098-1.058-3.706-1.058s-2.538.469-3.706 1.058l-.004.002c-1.33.68-2.84 1.44-5.29 1.44-2.432 0-3.938-.759-5.26-1.425l-.03-.015-.004-.002c-1.168-.59-2.098-1.058-3.706-1.058s-2.538.469-3.706 1.058l-.004.002C9.97 22.24 8.46 23 6.01 23v-3.5c1.608 0 2.538-.469 3.706-1.058l.004-.002c1.33-.68 2.84-1.44 5.29-1.44s3.96.76 5.29 1.44l.004.002c1.168.59 2.098 1.058 3.706 1.058s2.538-.469 3.706-1.058l.004-.002Z" clip-rule="evenodd"/></g></svg>