<svg xmlns="http://www.w3.org/2000/svg" width="48" height="48" fill="none"><path fill="url(#a)" d="M20.761 4.944a4.619 4.619 0 0 1 4.296 4.295 4.619 4.619 0 0 0 1.128 2.724 4.62 4.62 0 0 1 0 6.074 4.62 4.62 0 0 0-1.128 2.724 4.619 4.619 0 0 1-4.296 4.296 4.62 4.62 0 0 0-2.724 1.128 4.619 4.619 0 0 1-6.074 0 4.62 4.62 0 0 0-2.724-1.128 4.619 4.619 0 0 1-4.295-4.296 4.62 4.62 0 0 0-1.129-2.724 4.62 4.62 0 0 1 0-6.074 4.619 4.619 0 0 0 1.129-2.724 4.619 4.619 0 0 1 4.295-4.295 4.62 4.62 0 0 0 2.724-1.129 4.619 4.619 0 0 1 6.074 0 4.62 4.62 0 0 0 2.724 1.129Z"/><path fill="url(#b)" fill-rule="evenodd" d="m21.667 31 5.637-11.4c.588-1.425 1.994-2.35 3.553-2.35h16.079c.038-.413.064-.825.064-1.25 0-8.287-6.991-15-15.606-15-7.72 0-14.123 5.375-15.389 12.45a10.065 10.065 0 0 0-5.15-1.4C5.41 12.05 1 16.288 1 21.525c0 5.025 4.064 9.125 9.203 9.45V31h11.464Z" clip-rule="evenodd"/><path fill="url(#c)" fill-rule="evenodd" d="M30.667 21 24 34.754h6L29.253 47 44 30.958l-5.333-.026L44 21H30.667Z" clip-rule="evenodd"/><path fill="#7CACF8" d="m17 33-4.24 4.107a5.656 5.656 0 0 0 0 8.2c2.347 2.266 6.147 2.266 8.48 0a5.656 5.656 0 0 0 0-8.2l-.04-.04L17 33ZM7 22l-4.24 4.107a5.656 5.656 0 0 0 0 8.2c2.347 2.266 6.147 2.266 8.48 0a5.656 5.656 0 0 0 0-8.2l-.04-.04L7 22Z"/><defs><linearGradient id="b" x1="30.9" x2="9.16" y1="29.144" y2="10.486" gradientUnits="userSpaceOnUse"><stop stop-color="#474747"/><stop offset="1" stop-color="#757575"/></linearGradient><linearGradient id="c" x1="26.381" x2="56.109" y1="18.679" y2="47.852" gradientUnits="userSpaceOnUse"><stop stop-color="#FFE684"/><stop offset=".521" stop-color="#FFCD04"/></linearGradient><radialGradient id="a" cx="0" cy="0" r="1" gradientTransform="matrix(11.25002 18.41675 -19.5986 11.97195 9 6.5)" gradientUnits="userSpaceOnUse"><stop offset=".156" stop-color="#FFD535"/><stop offset=".322" stop-color="#FFD323"/><stop offset=".539" stop-color="#E2A93A"/></radialGradient></defs></svg>