<svg xmlns="http://www.w3.org/2000/svg" width="48" height="48" fill="none"><path fill="url(#a)" fill-rule="evenodd" d="M15.68 1c-1.693 2.053-2.72 4.653-2.72 7.493 0 6.627 5.547 12 12.4 12h.387C23.48 23.24 19.987 25 16.067 25c-6.854 0-12.4-5.373-12.4-12 0-6.507 5.346-11.8 12.013-12Z" clip-rule="evenodd"/><path fill="url(#b)" fill-rule="evenodd" d="m21.667 31 5.637-11.4c.588-1.425 1.994-2.35 3.553-2.35h16.079c.038-.413.064-.825.064-1.25 0-8.287-6.991-15-15.606-15-7.72 0-14.123 5.375-15.389 12.45a10.065 10.065 0 0 0-5.15-1.4C5.41 12.05 1 16.288 1 21.525c0 5.025 4.064 9.125 9.203 9.45V31h11.464Z" clip-rule="evenodd"/><path fill="url(#c)" fill-rule="evenodd" d="M30.667 21 24 34.754h6L29.253 47 44 30.958l-5.333-.026L44 21H30.667Z" clip-rule="evenodd"/><path fill="#7CACF8" d="m17 33-4.24 4.105a5.651 5.651 0 0 0 0 8.196c2.347 2.265 6.147 2.265 8.48 0a5.651 5.651 0 0 0 0-8.196l-.04-.04L17 33ZM7 22l-4.24 4.105a5.651 5.651 0 0 0 0 8.196c2.347 2.265 6.147 2.265 8.48 0a5.651 5.651 0 0 0 0-8.196l-.04-.04L7 22Z"/><defs><linearGradient id="a" x1="1.223" x2="32.477" y1="1.554" y2="31.04" gradientUnits="userSpaceOnUse"><stop stop-color="#E0ECFF"/><stop offset=".771" stop-color="#4C8DF6"/></linearGradient><linearGradient id="b" x1="30.9" x2="9.16" y1="29.144" y2="10.486" gradientUnits="userSpaceOnUse"><stop stop-color="#474747"/><stop offset="1" stop-color="#757575"/></linearGradient><linearGradient id="c" x1="26.381" x2="56.109" y1="18.679" y2="47.852" gradientUnits="userSpaceOnUse"><stop stop-color="#FFE684"/><stop offset=".521" stop-color="#FFCD04"/></linearGradient></defs></svg>