<svg xmlns="http://www.w3.org/2000/svg" width="48" height="48" fill="none"><path fill="url(#a)" fill-rule="evenodd" d="M47 16.5c0 8.358-6.662 15.172-15 15.488V32H11v-.002l-.143.001C5.413 31.999 1 27.616 1 22.209c0-5.406 4.413-9.788 9.857-9.788 1.89 0 3.654.527 5.154 1.443C17.271 6.559 23.679 1 31.393 1 40.013 1 47 7.94 47 16.5Z" clip-rule="evenodd"/><path fill="#E3E3E3" fill-rule="evenodd" d="M18.006 39.59V46h1.988v-6.41l6.012 3.205.994-1.59L20.988 38 27 34.795l-.994-1.59-6.012 3.205V30h-1.988v6.41l-6.012-3.205-.994 1.59L17.012 38 11 41.205l.994 1.59 6.012-3.205Z" clip-rule="evenodd"/><path fill="#E3E3E3" d="M18.006 39.59h.15v-.25l-.221.118.07.132Zm0 6.41h-.15v.15h.15V46Zm1.988 0v.15h.15V46h-.15Zm0-6.41.07-.132-.22-.118v.25h.15Zm6.012 3.205-.07.133.123.065.074-.118-.127-.08Zm.994-1.59.127.08.085-.137-.141-.075-.071.132ZM20.988 38l-.07-.132-.248.132.248.133.07-.133ZM27 34.795l.07.133.142-.076-.085-.136-.127.08Zm-.994-1.59.127-.08-.074-.118-.124.066.07.132Zm-6.012 3.205h-.15v.25l.22-.117-.07-.133Zm0-6.41h.15v-.15h-.15V30Zm-1.988 0v-.15h-.15V30h.15Zm0 6.41-.071.132.22.118v-.25h-.15Zm-6.012-3.205.07-.132-.123-.066-.074.119.127.08ZM11 34.795l-.127-.08-.085.137.141.076.071-.133ZM17.012 38l.07.133.248-.133-.248-.132-.07.132ZM11 41.205l-.07-.132-.142.075.085.137.127-.08Zm.994 1.59-.127.08.074.118.124-.066-.07-.132Zm5.862-3.205V46h.3v-6.41h-.3Zm.15 6.56h1.988v-.3h-1.988v.3Zm2.138-.15v-6.41h-.3V46h.3Zm-.22-6.278 6.011 3.206.141-.265-6.012-3.205-.14.264Zm6.209 3.153.994-1.59-.254-.16-.994 1.59.254.16Zm.938-1.802-6.012-3.205-.141.264 6.011 3.205.142-.264Zm-.142-6.41-6.011 3.205.14.264 6.013-3.204-.142-.265Zm-1.05-1.378.994 1.59.254-.16-.994-1.59-.254.16Zm-5.815 3.258 6.012-3.206-.14-.264-6.013 3.205.142.264Zm.08-.133V30h-.3v6.41h.3Zm-.15-6.56h-1.988v.3h1.988v-.3Zm-2.138.15v6.41h.3V30h-.3Zm.22 6.278-6.011-3.205-.141.264 6.011 3.205.141-.264Zm-6.209-3.152-.994 1.59.254.159.994-1.59-.254-.16Zm-.938 1.802 6.012 3.205.141-.265-6.011-3.205-.142.265Zm.142 6.41 6.011-3.206-.14-.264-6.013 3.205.142.264Zm1.05 1.378-.994-1.59-.254.159.994 1.59.254-.16Zm5.814-3.258-6.011 3.205.14.265 6.012-3.205-.141-.265Z"/><path fill="#C7C7C7" d="m37 36 5.657 5.656L37 47.313l-5.657-5.657z"/><path fill="#7CACF8" d="m37 20-4.243 4.1a5.663 5.663 0 0 0 0 8.201c2.344 2.265 6.143 2.265 8.486 0a5.663 5.663 0 0 0 0-8.2l-.038-.036L37 20Z"/><defs><linearGradient id="a" x1="30.9" x2="8.558" y1="30.083" y2="11.527" gradientUnits="userSpaceOnUse"><stop stop-color="#474747"/><stop offset="1" stop-color="#757575"/></linearGradient></defs></svg>