<svg xmlns="http://www.w3.org/2000/svg" width="48" height="48" fill="none"><path fill="url(#a)" fill-rule="evenodd" d="M16.688 2c-2.076 2.51-3.319 5.696-3.319 9.162 0 8.102 6.787 14.67 15.16 14.67a16 16 0 0 0 .47-.007c-2.778 3.358-7.05 5.508-11.84 5.508C8.787 31.333 2 24.765 2 16.663 2 8.713 8.534 2.241 16.688 2Z" clip-rule="evenodd"/><path fill="url(#b)" fill-opacity=".95" fill-rule="evenodd" d="M47 31c0 8.088-6.662 14.681-15 14.987V46H11v-.001l-.143.001C5.413 46 1 41.759 1 36.527c0-5.232 4.413-9.473 9.857-9.473 1.89 0 3.654.51 5.154 1.396C17.27 21.38 23.678 16 31.393 16 40.013 16 47 22.715 47 31Z" clip-rule="evenodd"/><defs><linearGradient id="a" x1="-.348" x2="37.86" y1="2" y2="38.047" gradientUnits="userSpaceOnUse"><stop stop-color="#A8C7FA"/><stop offset=".771" stop-color="#4C8DF6"/></linearGradient><linearGradient id="b" x1="31.667" x2="17.95" y1="49" y2="25.259" gradientUnits="userSpaceOnUse"><stop offset=".078" stop-color="#A0A0A0"/><stop offset=".349" stop-color="#CCC"/><stop offset="1" stop-color="#fff"/></linearGradient></defs></svg>