<svg xmlns="http://www.w3.org/2000/svg" width="48" height="48" fill="none"><path fill="url(#a)" fill-rule="evenodd" d="M23.85 1c-3.232 3.937-5.164 8.932-5.164 14.367 0 12.706 10.558 23.006 23.582 23.006.245 0 .489-.004.732-.01C38.678 43.627 32.034 47 24.582 47 11.558 47 1 36.7 1 23.995 1 11.528 11.164 1.377 23.85 1Z" clip-rule="evenodd"/><path fill="url(#b)" fill-opacity=".95" fill-rule="evenodd" d="M47 31.5c0 8.358-6.662 15.172-15 15.488V47H11v-.001h-.143C5.413 47 1 42.618 1 37.212c0-5.407 4.413-9.79 9.857-9.79a9.86 9.86 0 0 1 5.154 1.443C17.27 21.56 23.678 16 31.393 16 40.013 16 47 22.94 47 31.5Z" clip-rule="evenodd"/><defs><linearGradient id="a" x1="-2.652" x2="57.234" y1="1" y2="57.046" gradientUnits="userSpaceOnUse"><stop stop-color="#A8C7FA"/><stop offset=".771" stop-color="#4C8DF6"/></linearGradient><linearGradient id="b" x1="31.667" x2="17.265" y1="50.1" y2="25.977" gradientUnits="userSpaceOnUse"><stop offset=".078" stop-color="#A0A0A0"/><stop offset=".349" stop-color="#CCC"/><stop offset="1" stop-color="#fff"/></linearGradient></defs></svg>