<svg xmlns="http://www.w3.org/2000/svg" width="48" height="48" fill="none"><path fill="url(#a)" d="M20.761 4.944a4.619 4.619 0 0 1 4.296 4.295 4.619 4.619 0 0 0 1.128 2.724 4.62 4.62 0 0 1 0 6.074 4.62 4.62 0 0 0-1.128 2.724 4.619 4.619 0 0 1-4.296 4.296 4.62 4.62 0 0 0-2.724 1.128 4.619 4.619 0 0 1-6.074 0 4.62 4.62 0 0 0-2.724-1.128 4.619 4.619 0 0 1-4.295-4.296 4.62 4.62 0 0 0-1.129-2.724 4.62 4.62 0 0 1 0-6.074 4.619 4.619 0 0 0 1.129-2.724 4.619 4.619 0 0 1 4.295-4.295 4.62 4.62 0 0 0 2.724-1.129 4.619 4.619 0 0 1 6.074 0 4.62 4.62 0 0 0 2.724 1.129Z"/><path fill="url(#b)" fill-rule="evenodd" d="M47 16.5c0 8.358-6.662 15.171-15 15.488V32H11v-.002h-.143C5.413 31.999 1 27.617 1 22.21c0-5.406 4.413-9.789 9.857-9.789 1.89 0 3.654.528 5.154 1.444C17.271 6.559 23.678 1 31.393 1 40.013 1 47 7.94 47 16.5Z" clip-rule="evenodd"/><path fill="#7CACF8" d="m23 20-4.243 4.1a5.663 5.663 0 0 0 0 8.202c2.343 2.264 6.142 2.264 8.485 0a5.663 5.663 0 0 0-.037-8.237L23 20Zm8 13-4.243 4.1a5.663 5.663 0 0 0 0 8.202c2.343 2.264 6.142 2.264 8.485 0a5.663 5.663 0 0 0-.037-8.237L31 33Zm10-13-4.243 4.1a5.663 5.663 0 0 0 0 8.201c2.344 2.265 6.143 2.265 8.486 0a5.663 5.663 0 0 0 0-8.2l-.038-.036L41 20Z"/><defs><radialGradient id="a" cx="0" cy="0" r="1" gradientTransform="matrix(11.25002 18.41675 -19.5986 11.97195 9 6.5)" gradientUnits="userSpaceOnUse"><stop offset=".156" stop-color="#FFD535"/><stop offset=".322" stop-color="#FFD323"/><stop offset=".539" stop-color="#E2A93A"/></radialGradient><linearGradient id="b" x1="30.9" x2="8.558" y1="30.082" y2="11.527" gradientUnits="userSpaceOnUse"><stop stop-color="#474747"/><stop offset="1" stop-color="#757575"/></linearGradient></defs></svg>